<svg width="60" height="20" fill="none" xmlns="http://www.w3.org/2000/svg"><path d="M.005 14.768c-.136-3.056 2.75-5.69 6.454-5.87 2.86-.137 5.518 1.166 6.42 3.286 1.087 2.442-4.86 3.795-5.17 1.347-.211-1.72-.539-3.002-1.178-2.97-.606.03-1.1 1.05-1.046 2.313.164 3.685 4.703 4.862 5.603 3.09.405-.752 2.339-.513 1.717.682-.998 1.879-3.233 3.217-5.858 3.345-3.7.176-6.805-2.136-6.942-5.223ZM13.736 12.924c.02-3.06 2.945-5.538 6.54-5.516 3.596.023 6.491 2.537 6.472 5.597-.018 3.094-2.944 5.537-6.54 5.514-3.595-.02-6.49-2.502-6.472-5.595Zm5.2.033c-.014 2.162.564 3.896 1.283 3.9.751.005 1.35-1.722 1.364-3.885.014-2.129-.565-3.896-1.317-3.9-.719-.003-1.319 1.756-1.33 3.885ZM41.929 18.037c0 1.462-1.081 1.961-3.084 1.961-2.033 0-3.114-.499-3.114-1.961 0-1.795.953-2.661.953-4.789 0-1.397-.572-2.692-1.43-2.692-1.08 0-2.318 1.662-2.318 3.459v.2c0 2.229.986 2.395.986 3.823 0 1.463-1.081 1.962-3.114 1.962s-3.114-.5-3.114-1.962c0-1.295.984-1.163.984-3.126 0-1.43-1.207-1.797-1.207-3.06 0-1.796 5.306-4.19 6.292-2.23.73-.465 1.62-.73 2.604-.73 2.796 0 4.608 1.664 4.608 4.19v.166c.032 2.128.954 2.992.954 4.789ZM41.93 7.574c-.035-.742.54-1.384 1.275-1.419l.351-.017c.428-3.866 3.366-5.977 6.587-6.13 2.424-.115 5.447 1.003 6.14 2.844.942 2.412-4.86 3.398-5.26.993-.272-1.733-.708-2.197-1.506-2.159-1.116.053-1.585 2.37-1.688 4.25l.923-.043a1.335 1.335 0 0 1 1.403 1.291 1.337 1.337 0 0 1-1.277 1.417l-1.02.048c.107 1.23.314 2.206.489 2.88.287 1.11.563 1.71.73 2.93.148 1.076.23 1.619-.04 2.102-.656 1.185-2.494 1.21-2.966 1.216-.345.005-2.38.03-3.035-1.203-.078-.147-.176-.39-.122-1.518.087-1.802.41-2.674.58-4.344.042-.417.093-1.061.093-1.862l-.255.012a1.35 1.35 0 0 1-1.403-1.288Z" fill="#222"/><path d="M49.879 9.856c0-.741.627-1.354 1.384-1.354h.461c.856 0 2.272-2.576 3.953-2.576.987 0 1.745.387 1.745 1.416 0 .451-.131.806-.297 1.16h.987c.758 0 1.385.613 1.385 1.354 0 .741-.627 1.352-1.385 1.352H56.4v3.832c0 1.096.297 1.901 2.075 1.064.725-.322 2.075.064 1.284 1.32-.856 1.449-2.8 1.835-4.182 1.835-1.747 0-3.855-1.03-3.855-3.35v-4.7h-.46c-.757 0-1.383-.612-1.383-1.353Z" fill="#222"/></svg>