<svg width="25" height="24" fill="none" xmlns="http://www.w3.org/2000/svg"><g clip-path="url(#a)" stroke="#A1A1A1" stroke-width="2" stroke-linecap="round" stroke-linejoin="round"><path d="M11.5 17a2.5 2.5 0 0 0 2 0"/><path d="M12.5 3C7.836 3 5.104 5.331 4.638 8.595a11.816 11.816 0 0 0 2 8.592 10.777 10.777 0 0 0 3.199 3.064c1.666 1 3.664 1 5.33 0a10.778 10.778 0 0 0 3.199-3.064 11.89 11.89 0 0 0 2-8.592C19.9 5.33 17.168 3 12.504 3H12.5ZM8.5 11l2 2M16.5 11l-2 2"/></g><defs><clipPath id="a"><path fill="#fff" transform="translate(.5)" d="M0 0h24v24H0z"/></clipPath></defs></svg>