<svg width="328" height="179" fill="none" xmlns="http://www.w3.org/2000/svg"><path d="M571.132 5.302H536.25l-4.128-.94h34.366l4.61.94h.034Zm-22.394-4.6 2.958.602H519.05l-2.648-.602h32.336Zm-46.096 0 2.648.602h-34.331l-2.305-.602h33.988ZM80.554 220.873l9.597-39.348 146.441-.361 12.9 39.179-168.938.506v.024Zm169.936 2.528 18.232 55.434-202.513.771 13.588-55.675 170.693-.506v-.024ZM-210.23 4.387h37.084l-3.681.987h-37.668l4.231-.987h.034Zm-17.888.987h-36.085l4.85-.987h35.501l-4.266.987Zm326.8 141.113 5.367-22.01 113.829-.192 7.224 21.937-126.42.241v.024Zm127.418 2.794 9.494 28.897-144.72.337 7.052-28.994 128.14-.264.034.024ZM-124.574 8.408h42.519l-3.509 1.373h-43.31l4.335-1.373h-.035Zm-14.723 1.373h-41.796l5.126-1.373h41.005l-4.335 1.373Zm249.022 91.555 3.302-13.485 92.846-.097 4.437 13.461-100.585.145v-.024Zm101.549 2.889 5.607 17.05-112.075.192 4.162-17.097 102.306-.145ZM113.75 84.792l2.614-10.788 84.934-.072 3.543 10.764-91.126.096h.035Zm177.607-70.22h-49.502l-1.651-1.805h48.47l2.683 1.806Zm3.543-1.83h47.197l3.715 1.807h-48.229l-2.683-1.806ZM119.976 59.268l1.72-7.032 72.481-.048 2.305 7.032-76.506.072v-.024Zm77.503 2.962 2.855 8.669-83.213.072 2.133-8.693 78.225-.072v.024ZM122.418 49.2l1.376-5.707 67.459-.048 1.892 5.707-70.727.048Zm61.129-29.21h-54.008l.585-2.36h52.666l.792 2.36h-.035Zm3.681-2.36h52.219l2.133 2.336h-53.561l-.791-2.336Zm-59.168 8.404.722-2.986h55.763l.997 2.962H128.06v.024Zm58.48 3.01 1.238 3.733h-61.335l.895-3.709h59.202v-.024Zm-61.404-9.054H71.3l1.926-2.36h52.495l-.585 2.36Zm-58.824.024H13.198l3.303-2.36h51.737l-1.926 2.36Zm-2.477 3.034-2.442 3.01H4.805l4.197-2.986h54.833v-.024Zm4.988 0h55.591l-.723 2.986h-57.31l2.442-2.986Zm54.111 6.02-.894 3.733H60.842l3.062-3.709h59.03v-.024Zm-1.651 6.767-1.135 4.623-65.6.049 3.783-4.648h62.918l.034-.024Zm-1.857 7.658L118.05 49.2l-70.624.048 4.679-5.731 67.321-.048v.024Zm5.125-3.035 1.135-4.623h63.09l1.514 4.6-65.739.048v-.025Zm68.663-4.671h62.608l4.162 4.575-65.222.048-1.514-4.623h-.034Zm-.998-3.034-1.238-3.733h58.755l3.371 3.709H192.25l-.034.024Zm-2.236-6.743-.998-2.986h55.316l2.683 2.962H189.98v.024Zm59.443-3.01h54.318l4.369 2.962h-56.004L249.423 23Zm-2.717-3.034-2.133-2.36h51.256l3.474 2.336h-52.597v.024Zm-9.976-5.394h-50.5l-.584-1.806h49.432l1.652 1.806Zm-54.937.024h-50.947l.448-1.83h49.88l.584 1.83h.035Zm-55.315 0h-50.74l1.513-1.83h49.674l-.447 1.83Zm-55.728.024H20.766l2.546-1.83h48.951l-1.513 1.83Zm-56.072 0h-48.883l3.612-1.83h47.816l-2.545 1.83Zm-56.244.024h-47.576l4.679-1.83h46.509l-3.612 1.83Zm-5.986 3.034-4.678 2.384h-50.706l6.054-2.36h49.33v-.024Zm7.396 0h50.637l-3.303 2.36h-52.012l4.678-2.36Zm43.103 5.394-4.197 3.01h-55.487l5.917-2.986H2.947v-.024Zm-8.393 6.044-5.23 3.757h-59.408l7.396-3.732h57.242v-.024Zm6.02-.024h58.308l-3.062 3.733H-4.655l5.229-3.733Zm52.804 6.767-3.784 4.648-64.913.048 6.467-4.648h62.23v-.048Zm-6.261 7.682-4.679 5.731-69.935.048 7.981-5.731 66.633-.048Zm-7.155 8.741-5.78 7.056-75.748.072 9.838-7.056 71.69-.048v-.024Zm4.988 0 72.343-.048-1.72 7.032-76.403.072 5.745-7.056h.035Zm69.9 10.018-2.132 8.693-83.145.072 7.12-8.693 78.157-.072Zm-2.855 11.727-2.614 10.788-91.091.097L27.13 74.1l84.865-.072Zm93.775-.096 84.383-.072 9.666 10.74-90.506.096-3.543-10.764Zm-.998-3.034-2.855-8.67 77.709-.072 7.809 8.645-82.629.073-.034.024Zm-3.853-11.704-2.305-7.031 71.965-.048 6.33 7.007-75.955.072h-.035Zm-3.302-10.041-1.892-5.707 66.977-.049 5.125 5.684-70.21.048v.024Zm70.21-5.756 65.945-.048 8.359 5.683-69.178.049-5.126-5.684Zm-2.752-3.034-4.162-4.623h61.61l6.777 4.575-64.225.048Zm-6.88-7.633-3.371-3.733h57.758l5.469 3.684h-59.856v.049Zm60.613-3.757h56.416l7.568 3.684h-58.514l-5.47-3.684Zm-4.472-3.01-4.369-2.986h53.011l6.088 2.962H314.37l-.034.024Zm-8.841-6.02-3.474-2.36h49.949l4.781 2.336h-51.29l.034.024Zm54.043-2.36h48.469l6.123 2.336h-49.776l-4.782-2.336h-.034Zm-6.192-3.034-3.716-1.806h45.718l4.747 1.806h-46.749Zm-9.908-4.84-2.786-1.35h43.206l3.544 1.35h-43.964Zm-7.568 0h-45.442l-1.995-1.35h44.685l2.787 1.35h-.035Zm-51.668 0h-46.75l-1.238-1.35h45.958l1.995 1.35h.035Zm-51.876.023h-47.712l-.448-1.348h46.922l1.238 1.348Zm-52.15 0h-48.16l.344-1.372h47.369l.447 1.372Zm-52.529 0H79.694l1.135-1.372h47.162l-.344 1.372Zm-52.941.025H27.509l1.926-1.373h46.406l-1.135 1.373Zm-53.252 0h-46.096l2.718-1.373h45.27L21.42 9.757h.034Zm-53.423 0h-44.754l3.509-1.373h43.963l-2.718 1.373Zm-61.335 3.058-4.678 1.854h-46.131l5.779-1.83h45.064l-.034-.024Zm-12.384 4.864-6.054 2.384h-49.261l7.43-2.384h47.885Zm-13.794 5.418-7.672 3.01h-52.769l9.425-3.01h51.016Zm8.84 0h52.46l-5.916 2.986h-54.18l7.671-2.986h-.035Zm40.558 6.045-7.396 3.756h-58.136l9.563-3.732h55.935l.034-.024Zm-13.347 6.79-9.15 4.648h-62.574l11.868-4.624h59.856v-.024Zm7.396 0h61.163l-6.467 4.624-63.847.048 9.15-4.648v-.024Zm50.465 7.634-7.981 5.731-68.903.048 11.283-5.73 65.566-.049h.035Zm-12.212 8.765-9.839 7.056-74.717.072 13.932-7.08 70.658-.048h-.034Zm-14.07 10.114-12.143 8.717-81.528.073 17.2-8.742 76.471-.072v.024Zm6.054-.024 77.504-.072-7.121 8.717-82.526.072 12.143-8.717Zm67.906 11.68-8.84 10.812-90.507.096 15.067-10.836 84.246-.073h.034ZM10.79 87.946-.252 101.48l-100.07.145 18.886-13.558 92.26-.096-.034-.024Zm4.988 0 92.812-.096-3.303 13.485-100.585.144 11.042-13.533h.034Zm88.787 16.423-4.163 17.097-112.178.193 14-17.146 102.341-.144Zm-4.885 20.132-5.366 22.009-126.592.241 18.06-22.082 113.898-.193v.025Zm122.636-.217 113.107-.193 19.711 21.89-125.594.24-7.224-21.937Zm-.998-3.034-5.607-17.05 101.652-.144 15.343 17.001-111.353.193h-.035Zm-6.604-20.084-4.438-13.461 92.226-.096 12.109 13.437-99.897.144v-.024Zm92.948-13.557 91.092-.097 19.745 13.389-98.728.145-12.109-13.437Zm-2.752-3.034-9.666-10.74 83.282-.073 15.79 10.716-89.371.097h-.035ZM292.526 70.8l-7.808-8.645 76.643-.072 12.728 8.645-81.563.072ZM282 59.122l-6.33-7.007 70.899-.049 10.285 6.984-74.888.072H282Zm70.795-7.056 69.557-.048 14.276 6.984-73.513.072-10.285-6.983-.035-.025Zm-4.472-3.034-8.359-5.683 64.603-.048 11.593 5.659-67.802.048-.035.024Zm-12.797-8.693-6.776-4.6h60.268l9.392 4.576-62.884.048v-.024Zm61.026-4.648h58.755l12.006 4.552h-61.335l-9.392-4.552h-.034Zm-6.192-3.01-7.568-3.708h54.902l9.667 3.684H390.36v.024ZM376.6 25.94l-6.089-2.962h51.497l7.74 2.962h-53.182.034Zm54.455-2.986h49.915l9.425 2.938h-51.6l-7.74-2.938Zm-7.912-3.034-6.123-2.336h46.853l7.43 2.336h-48.194.034Zm-14.035-5.37-4.747-1.806h44.135l5.745 1.806h-45.133Zm-12.659-4.84-3.543-1.35h41.624l4.3 1.35h-42.381Zm48.641-1.373h40.008l5.056 1.348H449.39l-4.3-1.348Zm-9.632-3.034-3.061-.964h37.737l3.577.964h-38.287.034Zm-10.56 0h-39.904l-2.512-.964h39.354l3.062.964Zm-48.952.024H334.46l-1.961-.964h40.936l2.511.964Zm-49.054 0h-42.966l-1.41-.964h42.415l1.961.964Zm-49.158 0h-44.238l-.86-.964h43.688l1.41.964Zm-49.364 0h-45.201l-.31-.964h44.651l.86.964Zm-49.639 0h-45.614l.241-.964h45.064l.309.964Zm-50.017.024H83.306l.79-.963h44.858l-.24.963Zm-50.396 0H33.666l1.376-.988h44.101l-.791.988h-.034Zm-50.706 0h-43.55l1.926-.988h42.966l-1.376.988h.034Zm-50.912 0h-42.209l2.511-.988h41.624l-1.926.988Zm-51.05 0h-40.764l3.096-.988h40.18l-2.512.988Zm-51.187.024h-39.25l3.646-.987h38.666l-3.096.987h.034Zm-62.47 3.034-5.126 1.397h-40.248l5.951-1.397h39.423Zm-16.34 4.43-6.846 1.855h-43.103l7.946-1.854h42.003Zm12.04-.023h43.55l-5.779 1.854h-44.651l6.845-1.854h.035Zm28.311 4.888-7.465 2.384h-47.781l8.84-2.384h46.406Zm-16.925 5.418-9.425 3.01h-51.291l11.18-3.01h49.536Zm-18.885 6.069-11.765 3.78h-55.247l13.967-3.756h53.045v-.024Zm10.423-.024h54.524l-9.563 3.732h-56.726l11.765-3.732Zm37.255 6.79-11.868 4.672h-61.198l14.552-4.648h58.48l.034-.024Zm-19.608 7.706-14.62 5.756-66.289.048 17.957-5.756 62.952-.048Zm8.875 0 64.328-.048-11.283 5.731-67.665.049 14.62-5.756v.024Zm47.059 8.718-13.932 7.08-73.512.072 18.025-7.08 69.385-.048.034-.025Zm-19.883 10.113-17.2 8.742-80.324.072 22.257-8.765 75.267-.073v.024Zm-23.185 11.8-21.363 10.86-88.408.097 27.658-10.885 82.078-.072h.035Zm7.396-.024 83.282-.072-15.067 10.836-89.543.096 21.362-10.86h-.034Zm63.984 13.798-18.886 13.558-99.175.144 26.729-13.581 91.297-.097.035-.024Zm-23.117 16.592-23.908 17.194-110.871.192 33.884-17.218 100.895-.144v-.024Zm6.054 0 101.79-.145-14.001 17.146-111.697.193 23.908-17.194Zm85.312 20.035-18.06 22.082-126.213.241 30.822-22.13 113.451-.193Zm-20.537 25.116-23.77 29.09-144.79.337 40.592-29.186 127.968-.265v.024Zm5.023-.024 128.346-.265-7.052 28.994-145.03.361 23.77-29.09h-.034Zm120.503 31.763-9.598 39.348-169.454.506 32.267-39.493 146.785-.361Zm155.316-.361 145.512-.362 35.191 39.035-167.769.506-12.9-39.179h-.034Zm-.998-3.034-9.494-28.897 127.314-.241 25.938 28.8-143.758.338Zm122.912-29.138 125.972-.241 42.278 28.704-142.313.337-25.937-28.8Zm-2.718-3.034-19.711-21.89 111.834-.192 32.13 21.817-124.253.24v.025Zm-22.463-24.924-15.308-17.001 100.448-.145 24.974 16.953-110.114.193Zm91.366-17.146 98.935-.144 34.572 16.929-108.532.168-24.975-16.953Zm-4.472-3.034-19.745-13.389 89.646-.096 27.314 13.365-97.215.144v-.024Zm-24.183-16.423-15.79-10.716 81.838-.072L488.4 84.359l-87.926.096h.034ZM380.281 70.73l-12.728-8.645 75.233-.072 17.612 8.62-80.117.073v.024Zm70.073-8.717 73.65-.072 22.463 8.597-78.535.072-17.613-8.621.035.024Zm-6.192-3.01-14.276-6.984 67.974-.048 18.198 6.96-71.931.048.035.024Zm-20.468-10.018-11.593-5.659 63.055-.048 14.792 5.659-66.254.048Zm60.509-5.707h61.439l17.956 5.61-64.603.049-14.792-5.659Zm-7.912-3.034-11.971-4.576h57.104l14.586 4.552h-59.719v.024Zm-19.883-7.61-9.666-3.708h53.32l11.764 3.684h-55.384l-.034.024Zm54.18-3.732h51.634l13.864 3.66h-53.733l-11.765-3.66Zm-9.632-3.01-9.426-2.962h48.264l11.076 2.938h-49.914v.024Zm-19.092-5.996-7.43-2.336h45.201l8.772 2.311h-46.543v.024Zm-17.062-5.37-5.745-1.806h42.484l6.777 1.806h-43.516Zm48.882-1.806h40.798l7.775 1.806h-41.796l-6.777-1.806Zm-11.352-3.035-5.057-1.348h38.322l5.813 1.348h-39.078Zm-16.443-4.382-3.578-.964h36.051l4.128.964h-36.601Zm-29.412-4.6 2.305.602h-36.017l-1.961-.602h35.673Zm-46.234 0 1.961.626H374.57l-1.616-.626h37.289Zm-46.337 0 1.617.626h-39.216l-1.273-.626h38.872Zm-46.44 0 1.273.626h-40.661l-.928-.626h40.316Zm-46.543 0 .929.626h-41.968l-.55-.626h41.589Zm-46.715 0 .55.626h-42.896l-.207-.626h42.553Zm-46.99 0 .206.626H134.08l.138-.626h43Zm-47.507.626H86.608l.516-.626h42.759l-.137.626h-.035Zm-48.125 0H39.239l.895-.626h42.002l-.516.626h-.034Zm-48.401 0H-8.061l1.239-.626h40.867l-.895.626h.035Zm-48.607.024h-39.904l1.616-.626h39.526l-1.238.626Zm-48.71 0h-38.426l1.996-.626h38.08l-1.616.626h-.035Zm-48.849 0h-36.911l2.374-.65h36.532l-1.995.65Zm-48.917 0h-35.363l2.752-.65h34.985l-2.374.65Zm-49.02 0h-33.746l3.13-.65h33.368l-2.752.65Zm-49.088 0h-4.06l.207-.65h7.017l-3.13.65h-.034Zm18.92 7.056-5.952 1.397h-19.298c.103-.458.206-.94.344-1.397h24.906Zm-18.92 4.43-7.465 1.735.413-1.734h7.052Zm-7.259 4.89h44.858l-8.841 2.383h-37.358c.137-.722.275-1.445.447-2.167l.929-.217h-.035Zm24.803 5.417-11.18 3.035h-16.1c.172-1.012.31-2.023.482-3.01h26.763l.035-.025Zm-22.429 6.069-5.607 1.517c.068-.506.172-1.012.24-1.517h5.367Zm43.86 6.767-14.586 4.671h-36.017c.138-1.541.31-3.106.516-4.647h50.121l-.034-.025Zm-24.046 7.705-17.991 5.756h-9.254c.104-1.927.241-3.83.379-5.756h26.866Zm-17.028 8.814 68.043-.048-18.025 7.08-60.544.048c0-1.252.034-2.505.069-3.733l10.457-3.347Zm42.278 10.066-22.257 8.765h-30.306c-.138-2.865-.241-5.78-.241-8.717l52.838-.048h-.034Zm-29.997 11.8-21.706 8.548c-.31-2.817-.516-5.659-.688-8.525h22.394v-.024Zm63.64 13.822-26.729 13.581-55.762.072a198.697 198.697 0 0 1-2.202-13.581l84.693-.096v.024Zm-32.714 16.615-33.884 17.242h-10.905a225.681 225.681 0 0 1-4.369-17.169l49.158-.073Zm-39.87 20.276-3.44 1.758c-.172-.578-.378-1.156-.55-1.733h3.99v-.025Zm7.396 0 112.626-.192-30.823 22.154-84.968.169a225.271 225.271 0 0 1-6.605-17.17l9.77-4.961Zm77.572 24.996-40.626 29.186-23.324.048c-5.848-9.463-11.042-19.144-15.514-29.089l79.43-.169.034.024Zm-44.858 32.22-11.661 8.381a298.49 298.49 0 0 1-5.539-8.332l17.166-.049h.034Zm6.089-.024 146.544-.361-32.267 39.493-107.087.313a294.942 294.942 0 0 1-22.842-28.199l15.687-11.27-.035.024Zm111.766 42.19-41.659 50.955c-22.566-15.267-42.759-32.244-60.096-50.666l101.755-.313v.024Zm5.022-.024 171.209-.506-13.588 55.675-196.802.746c-1.411-.915-2.856-1.83-4.266-2.769l43.447-53.146ZM61.118 282.64l-16.272 66.704c-65.944-12.137-125.663-35.086-175.061-65.982l191.333-.722Zm4.403 0 204.233-.771 20.192 61.406c-43 10.259-89.061 15.822-136.946 15.822-35.845 0-70.658-3.131-103.957-9.007l16.443-67.474.035.024Zm208.67-.795 165.464-.626c-41.796 26.682-91.16 47.608-145.581 61.045l-19.883-60.419Zm-.997-3.034-18.232-55.434 169.523-.505 38.253 42.43a406.42 406.42 0 0 1-18.404 12.859l-171.14.65Zm156.382-55.939 80.978-.241c-13.279 14.352-28.277 27.861-44.789 40.383l-36.189-40.142Zm-2.752-3.011-35.191-39.035 144.033-.337 5.125 3.468c-8.015 12.353-17.234 24.249-27.485 35.64l-86.482.264Zm115.034-39.396h1.135c-.103.169-.241.361-.344.53l-.791-.53Zm-4.438-3.034-42.243-28.704 64.775-.121a245.843 245.843 0 0 1-15.033 28.801h-7.465l-.034.024Zm-46.715-31.714-32.13-21.817 110.252-.193.31.144c-2.271 7.345-4.885 14.593-7.912 21.721l-70.52.145Zm44.926-41.949 38.666-.048a221.768 221.768 0 0 1-4.163 16.929l-34.503-16.881Zm-6.157-3.034L502.16 87.369l74.854-.096a192.97 192.97 0 0 1-2.098 13.389l-45.442.072Zm-33.506-16.375-21.844-10.692 80.255-.072 23.186 8.861c-.069.602-.103 1.204-.172 1.806l-81.425.097Zm67.424-10.788h14.895a149.444 149.444 0 0 1-.413 5.538l-14.482-5.538Zm-7.912-3.01-22.463-8.597 45.649-.048c0 2.89-.104 5.755-.207 8.62h-22.945l-.034.025Zm-30.375-11.632-18.198-6.959 66.323-.048 5.298 1.662c.069 1.758.069 3.54.103 5.297l-53.526.048Zm49.054-10.041-17.957-5.635h21.707c.172 1.878.275 3.757.413 5.635h-4.163Zm-27.623-8.67-14.586-4.575h45.099c.172 1.493.344 3.035.516 4.552h-31.063l.034.024Zm27.83-11.341h1.788c0 .168.069.337.069.505l-1.892-.505h.035Zm-11.352-3.01-11.077-2.962h23.254c.172.987.344 1.974.482 2.962h-12.659ZM540.55 19.87l-8.737-2.335h42.277c.172.77.31 1.54.482 2.311H540.55v.024Zm27.727-7.176h4.747c.103.386.172.771.275 1.156l-5.022-1.156Zm-13.107-3.01-5.813-1.348h22.601c.103.433.206.89.309 1.348h-17.131.034Zm11.972-8.38-2.959-.602h5.711c.068.193.137.41.172.602h-2.924Z" fill="#393939"/></svg>