<svg width="34" height="32" viewBox="0 0 34 32" fill="none" xmlns="http://www.w3.org/2000/svg">
<path d="M27.4893 6.5L18.0488 13.614L19.8044 9.42149L27.4893 6.5Z" fill="#E17726"/>
<path d="M6.53125 6.50781L14.1956 9.42145L15.8625 13.6689L6.53125 6.50781Z" fill="#E27625"/>
<path d="M23.6916 21.6292L27.8641 21.71L26.4058 26.7552L21.3145 25.3275L23.6916 21.6292Z" fill="#E27625"/>
<path d="M10.3085 21.6292L12.6768 25.3275L7.5939 26.7553L6.14453 21.71L10.3085 21.6292Z" fill="#E27625"/>
<path d="M15.6369 12.5872L15.8075 18.1961L10.7051 17.9597L12.1564 15.7297L12.1748 15.7082L15.6369 12.5872Z" fill="#E27625"/>
<path d="M18.312 12.5244L21.827 15.7083L21.8452 15.7296L23.2966 17.9595L18.1953 18.1959L18.312 12.5244Z" fill="#E27625"/>
<path d="M12.8253 21.6458L15.6114 23.8565L12.375 25.4479L12.8253 21.6458Z" fill="#E27625"/>
<path d="M21.175 21.6458L21.616 25.4482L18.3887 23.8567L21.175 21.6458Z" fill="#E27625"/>
<path d="M18.457 23.6475L21.732 25.2625L18.6856 26.737L18.7173 25.7624L18.457 23.6475Z" fill="#D5BFB2"/>
<path d="M15.5408 23.6484L15.2908 25.7467L15.3113 26.7361L12.2578 25.2627L15.5408 23.6484Z" fill="#D5BFB2"/>
<path d="M14.595 18.929L15.4508 20.7607L12.5371 19.8914L14.595 18.929Z" fill="#233447"/>
<path d="M19.4064 18.929L21.474 19.8912L18.5508 20.7602L19.4064 18.929Z" fill="#233447"/>
<path d="M13.05 21.6272L12.579 25.5693L10.0547 21.7134L13.05 21.6272Z" fill="#CC6228"/>
<path d="M20.9492 21.6272L23.9447 21.7134L21.4108 25.5694L20.9492 21.6272Z" fill="#CC6228"/>
<path d="M23.3706 17.7375L21.1907 20.0002L19.51 19.218L18.7053 20.9408L18.1777 17.9782L23.3706 17.7375Z" fill="#CC6228"/>
<path d="M10.6309 17.7375L15.8247 17.9782L15.2971 20.9408L14.4923 19.2182L12.8204 20.0002L10.6309 17.7375Z" fill="#CC6228"/>
<path d="M10.4824 17.2725L12.9488 19.8213L13.0343 22.3375L10.4824 17.2725Z" fill="#E27525"/>
<path d="M23.5212 17.2686L20.9648 22.3427L21.0611 19.8219L23.5212 17.2686Z" fill="#E27525"/>
<path d="M15.7035 17.428L15.8027 18.0643L16.048 19.6494L15.8903 24.5181L15.1448 20.6071L15.1445 20.5666L15.7035 17.428Z" fill="#E27525"/>
<path d="M18.2963 17.4182L18.8568 20.5656L18.8565 20.6061L18.1091 24.5269L18.0795 23.5462L17.9629 19.6196L18.2963 17.4182Z" fill="#E27525"/>
<path d="M21.2796 19.7207L21.1961 21.9069L18.5943 23.9714L18.0684 23.5929L18.6579 20.5002L21.2796 19.7207Z" fill="#F5841F"/>
<path d="M12.7305 19.7207L15.3431 20.5002L15.9326 23.5929L15.4067 23.9713L12.8047 21.9067L12.7305 19.7207Z" fill="#F5841F"/>
<path d="M11.7598 24.7798L15.0885 26.386L15.0744 25.7001L15.3529 25.4512H18.6473L18.9359 25.6993L18.9147 26.3847L22.2223 24.7838L20.6128 26.1383L18.6666 27.4997H15.3262L13.3813 26.1328L11.7598 24.7798Z" fill="#C0AC9D"/>
<path d="M18.22 23.4348L18.6906 23.7734L18.9664 26.0145L18.5673 25.6712H15.4326L15.041 26.0214L15.3078 23.7736L15.7786 23.4348H18.22Z" fill="#161616"/>
<path d="M26.8662 6.69751L27.9994 10.1598L27.2917 13.6605L27.7957 14.0564L27.1138 14.5863L27.6262 14.9894L26.9476 15.6188L27.3643 15.9261L26.2586 17.2412L21.7234 15.8965L21.6841 15.875L18.416 13.0673L26.8662 6.69751Z" fill="#763E1A"/>
<path d="M7.13323 6.69751L15.5835 13.0673L12.3154 15.875L12.2761 15.8965L7.74089 17.2412L6.63521 15.9261L7.05152 15.619L6.3732 14.9894L6.88473 14.5867L6.19262 14.0553L6.71557 13.6592L6 10.1599L7.13323 6.69751Z" fill="#763E1A"/>
<path d="M21.5041 15.6018L26.3094 17.0266L27.8706 21.9268L23.7519 21.9268L20.9141 21.9632L22.9779 17.8663L21.5041 15.6018Z" fill="#F5841F"/>
<path d="M12.4984 15.6018L11.0244 17.8663L13.0884 21.9632L10.252 21.9268H6.14062L7.69302 17.0266L12.4984 15.6018Z" fill="#F5841F"/>
<path d="M20.0429 9.39771L18.6989 13.0947L18.4136 18.0889L18.3045 19.6543L18.2958 23.6531H15.708L15.6996 19.6618L15.5901 18.0875L15.3048 13.0947L13.9609 9.39771H20.0429Z" fill="#F5841F"/>
</svg>
