<svg width="34" height="35" viewBox="0 0 34 35" fill="none" xmlns="http://www.w3.org/2000/svg">
<rect x="3" y="5" width="27" height="26" rx="8.0396" fill="#F7F7F7"/>
<path d="M25.1201 14.8191C22.4751 14.5302 19.4721 14.2046 16.5786 13.8909C13.8395 13.5939 11.1987 13.3075 9.05269 13.0731C8.09923 12.9689 6.98507 13.4442 6.09561 14.2684C5.20608 15.0927 4.64911 16.166 4.6833 17.1236L4.98176 25.4803L29.0231 24.5187L29.2615 19.6814C29.3829 17.2173 27.5705 15.0867 25.1201 14.8191Z" fill="#222222" stroke="#F7F7F7"/>
<path d="M7.8111 19.7592C12.8044 19.2517 19.3597 18.5951 24.0481 18.1205C26.7615 17.8458 29.8868 20.7599 29.7921 23.4856C29.6561 27.3983 26.4448 30.5 22.5297 30.5H10.7763C7.15037 30.5 4.18598 27.6086 4.0956 23.9838C4.04164 21.8193 5.65699 19.9781 7.8111 19.7592Z" fill="#E8FC00"/>
<path d="M12.9664 22.9325C13.0591 22.631 12.9564 22.3105 12.7017 22.1064C12.5757 22.0055 12.24 21.9659 12.0865 22.0338C12.0292 22.0592 11.3124 22.7978 10.4935 23.6753L9.00475 25.2706L8.49332 24.7282C7.94393 24.1456 7.84526 24.0877 7.51514 24.1541C7.31003 24.1954 7.06076 24.4629 7.0223 24.6829C6.9555 25.0648 6.98679 25.1157 7.87022 26.0636C8.5672 26.8114 8.71376 26.9481 8.84657 26.974C8.91575 26.9874 8.97036 27.0003 9.02489 27C9.27226 26.9986 9.51829 26.7262 11.1176 25.0136C12.4072 23.6328 12.9331 23.0407 12.9664 22.9325Z" fill="#222222"/>
</svg>
