<svg width="200" height="57" fill="none" xmlns="http://www.w3.org/2000/svg"><g clip-path="url(#a)"><mask id="b" style="mask-type:luminance" maskUnits="userSpaceOnUse" x="0" y="0" width="71" height="72"><path d="M61.92 37.84c0-8.65 3.242-16.55 8.573-22.565C64.385 6.075 53.935 0 42.091 0a33.833 33.833 0 0 0-14.14 3.076c-.03.014-.058.025-.087.04-.025.01-.05.025-.08.036-.025.01-.054.025-.079.036-.025.01-.054.025-.08.036l-.08.036c-.024.011-.05.022-.071.033-.03.014-.058.025-.087.04-.025.01-.054.025-.08.036-.025.01-.05.025-.075.036-.03.01-.055.025-.084.036-.025.01-.054.025-.08.036l-.072.033c-.028.014-.057.025-.086.04-.026.01-.054.025-.08.036-.025.01-.05.025-.08.036l-.079.036c-.025.01-.054.025-.08.036-.025.01-.05.022-.072.033-.028.014-.057.025-.086.04-.026.01-.055.025-.08.035l-.08.037c-.025.01-.05.025-.079.036-.025.01-.054.025-.08.036l-.075.032c-.03.015-.058.026-.087.04l-.08.036c-.025.011-.054.026-.08.036-.024.011-.053.026-.079.037-.025.01-.05.025-.076.036-.025.01-.05.021-.075.036-.03.014-.058.025-.087.04-.025.01-.054.025-.08.036-.025.01-.054.025-.08.036l-.079.036c-.025.01-.05.025-.08.036l-.075.033c-.029.014-.058.025-.087.04-.025.01-.054.025-.08.036-.025.01-.054.025-.079.036-.025.01-.054.025-.08.036-.025.01-.054.025-.079.036-.025.01-.047.022-.072.033-.03.014-.058.025-.087.04-.025.01-.054.025-.08.036-.025.01-.054.025-.079.036-.025.01-.054.025-.08.036-.025.01-.054.025-.08.036l-.071.032c-.03.011-.055.026-.083.037-.03.01-.055.025-.084.036-.025.01-.054.025-.08.036l-.079.036c-.025.01-.054.025-.08.036l-.072.033-.083.04c-.025.01-.054.025-.08.036l-.079.036c-.025.01-.054.025-.08.036l-.079.036c-.025.01-.05.022-.072.033-.029.014-.058.025-.087.04-.025.01-.05.025-.08.036l-.079.036c-.025.01-.054.025-.08.036-.025.01-.05.021-.072.032-.028.015-.057.026-.086.04-.026.01-.055.025-.08.036-.025.011-.054.026-.08.036-.025.011-.05.026-.075.037-.03.01-.055.025-.083.036-.026.01-.051.021-.073.032-.029.015-.057.026-.086.04-.026.01-.055.025-.08.036l-.08.036c-.025.011-.05.026-.079.036l-.08.037-.075.032c-.03.015-.058.025-.087.04-.025.01-.054.025-.08.036-.025.01-.054.025-.08.036l-.079.036c-.025.011-.05.026-.08.036l-.075.033c-.029.014-.058.025-.087.04-.025.01-.054.025-.08.036-.025.01-.054.025-.079.036-.025.01-.054.025-.08.036-.025.011-.05.025-.079.036l-.076.033c-.029.014-.058.025-.087.04-.025.01-.054.025-.08.036l-.079.036c-.025.01-.054.025-.08.036l-.079.036-.072.033c-.029.014-.058.025-.087.04-.025.01-.054.025-.08.036l-.079.036c-.025.01-.054.025-.08.036C8.253 12.04 0 23.949 0 37.753 0 56.538 15.282 71.82 34.066 71.82c5.01 0 9.77-1.088 14.06-3.04l.091-.043a.521.521 0 0 1 .065-.03.986.986 0 0 1 .09-.04c.026-.01.048-.02.073-.032.025-.01.05-.025.08-.036l.09-.043c.021-.011.043-.022.068-.033l.09-.043c.022-.01.044-.022.066-.029a.998.998 0 0 1 .09-.04c.026-.01.047-.021.072-.032.026-.011.051-.026.08-.036l.09-.044c.022-.01.044-.022.07-.032a.986.986 0 0 1 .09-.04c.021-.01.043-.022.068-.033.025-.01.054-.025.08-.036l.09-.043c.022-.011.043-.022.069-.033l.09-.043c.022-.01.043-.022.069-.033.029-.014.058-.025.086-.04.026-.01.047-.021.073-.032.025-.01.054-.025.08-.036l.09-.043c.021-.011.043-.022.068-.033a.986.986 0 0 1 .09-.04c.026-.01.048-.021.07-.032a.725.725 0 0 0 .075-.036l.094-.044.069-.032.09-.044.069-.032a.986.986 0 0 1 .09-.04l.069-.032.08-.037c.032-.014.06-.029.093-.043.022-.01.044-.022.07-.032a.986.986 0 0 1 .09-.04c.025-.011.046-.022.068-.033.026-.01.05-.025.08-.036a.986.986 0 0 1 .09-.04l.069-.032c.032-.015.061-.03.094-.044l.068-.032a.986.986 0 0 1 .09-.04c.026-.01.048-.022.07-.032.025-.011.05-.026.079-.037a.986.986 0 0 1 .09-.04l.069-.032.09-.043c.026-.011.047-.022.069-.033.025-.01.05-.025.08-.036l.09-.043c.022-.011.043-.022.065-.03l.08-.035c.028-.015.06-.03.09-.044l.069-.032a.986.986 0 0 1 .09-.04l.069-.032a.988.988 0 0 1 .09-.04c.022-.011.043-.022.065-.03l.08-.035c.028-.015.06-.03.09-.044l.069-.032a.95.95 0 0 1 .09-.04l.069-.032c.025-.011.05-.026.08-.037.028-.014.057-.029.09-.04l.068-.032.09-.043.07-.033a.998.998 0 0 1 .09-.04c.021-.01.047-.021.068-.032.025-.011.05-.025.08-.036l.09-.044.069-.032c.029-.015.058-.026.083-.04.025-.01.054-.025.08-.036l.072-.033c.029-.014.057-.025.086-.04.026-.01.051-.025.08-.036.025-.01.054-.025.08-.036.025-.01.054-.025.079-.036.025-.01.054-.025.08-.036.025-.01.05-.022.072-.032.029-.015.058-.026.086-.04.026-.011.055-.026.08-.036.025-.011.05-.026.08-.037.025-.01.054-.025.08-.036l.079-.036c.025-.01.05-.022.072-.032.029-.015.058-.026.087-.04l.08-.036c.024-.011.05-.026.079-.036l.08-.037.079-.036c.025-.01.05-.021.072-.032.029-.015.058-.026.087-.04.025-.01.054-.025.08-.036a34.222 34.222 0 0 0 11.511-8.494 33.87 33.87 0 0 1-5.667-18.796l-.007.015Z" fill="#fff"/></mask><g mask="url(#b)" fill="#6F6F6F"><path d="m48.286 68.711.09-.043c.026-.011.047-.022.069-.033.025-.01.05-.025.08-.036l.09-.043c.021-.011.043-.022.068-.033a.988.988 0 0 1 .09-.04l.07-.032.09-.043.069-.033c.025-.01.05-.025.079-.036l.09-.043a1.18 1.18 0 0 1 .07-.033c.028-.014.057-.025.086-.04.025-.01.047-.021.072-.032.025-.011.05-.026.08-.036l.09-.044.069-.032.09-.044a.53.53 0 0 1 .065-.029.985.985 0 0 1 .09-.04c.026-.01.047-.021.073-.032.025-.01.05-.025.08-.036l.09-.043c.021-.011.043-.022.068-.033a.986.986 0 0 1 .09-.04l.07-.032.079-.036c.032-.015.061-.03.094-.044a1.18 1.18 0 0 1 .069-.032c.028-.015.06-.03.09-.044l.069-.032a.986.986 0 0 1 .09-.04 1.18 1.18 0 0 1 .069-.032l.08-.037.09-.043c.021-.01.043-.022.068-.032a.986.986 0 0 1 .09-.04c.026-.011.047-.022.07-.033a.725.725 0 0 0 .075-.036l.094-.043.069-.033.09-.043c.022-.011.043-.022.069-.033a.972.972 0 0 1 .09-.04c.025-.01.047-.021.069-.032.025-.01.05-.022.076-.036.032-.015.061-.03.094-.043l.068-.033a.998.998 0 0 1 .09-.04c.026-.01.048-.022.07-.032.025-.011.05-.026.079-.037.029-.014.061-.028.09-.043.022-.01.044-.022.065-.029.03-.01.054-.025.083-.036a.972.972 0 0 1 .09-.04l.07-.032a.986.986 0 0 1 .09-.04l.069-.032a.93.93 0 0 1 .086-.04l.069-.033c.029-.01.054-.025.08-.036a.96.96 0 0 1 .09-.04l.069-.032a.95.95 0 0 1 .09-.04l.069-.032c.025-.011.05-.026.075-.037l.09-.043.07-.033a.985.985 0 0 1 .09-.04l.069-.032a.986.986 0 0 1 .09-.04l.069-.032.075-.036.094-.044.07-.032c.028-.015.057-.026.082-.04.026-.01.054-.025.08-.036l.072-.033c.029-.01.054-.025.083-.04.026-.01.054-.025.08-.036.025-.01.054-.025.08-.036.025-.01.053-.025.079-.036.025-.01.054-.025.08-.036.025-.01.05-.022.072-.032.029-.015.057-.026.086-.04.026-.011.05-.026.08-.036l.08-.037c.025-.01.054-.025.079-.036.025-.01.054-.025.08-.036.025-.01.05-.022.072-.032.029-.015.057-.026.086-.04.026-.011.051-.025.08-.036.025-.011.054-.026.08-.036l.079-.037c.025-.01.054-.025.08-.036.025-.01.05-.021.072-.032.029-.015.058-.026.087-.04.025-.01.054-.025.079-.036 11.83-5.346 20.082-17.26 20.082-31.063C76.157 15.282 60.875 0 42.091 0a33.817 33.817 0 0 0-14.137 3.076c-.029.014-.057.025-.086.04-.026.01-.055.025-.08.036-.025.01-.05.025-.08.036-.025.01-.054.025-.079.036l-.08.036-.072.033c-.029.014-.058.025-.087.04-.025.01-.054.025-.079.036-.025.01-.054.025-.08.036-.025.01-.05.025-.075.036-.03.01-.055.025-.083.036L27 3.51c-.029.014-.058.025-.087.04-.025.01-.054.025-.08.036l-.079.036c-.025.01-.05.025-.08.036l-.079.036-.076.033c-.028.014-.057.025-.086.04-.026.01-.055.025-.08.035l-.08.037c-.025.01-.054.025-.079.036-.025.01-.05.025-.08.036l-.075.032c-.03.015-.058.026-.087.04l-.08.036c-.025.011-.054.026-.08.036-.024.011-.053.026-.079.037-.025.01-.054.025-.08.036l-.071.032c-.03.015-.058.026-.087.04-.025.01-.054.025-.08.036l-.08.036c-.024.011-.053.026-.079.036l-.08.037-.072.032c-.028.015-.057.025-.086.04-.026.01-.055.025-.08.036-.025.01-.054.025-.08.036l-.079.036c-.025.011-.054.026-.08.036l-.072.033-.083.04c-.025.01-.054.025-.08.036-.025.01-.053.025-.079.036-.025.01-.054.025-.08.036-.025.011-.053.026-.079.036l-.072.033-.083.04c-.026.01-.054.025-.08.036-.025.01-.054.025-.08.036-.025.01-.053.025-.079.036-.025.01-.054.025-.08.036l-.072.033c-.029.014-.057.025-.086.04-.026.01-.051.025-.08.036-.025.01-.054.025-.08.036-.025.01-.054.025-.079.036-.025.01-.054.025-.08.036-.025.01-.05.022-.072.033-.029.014-.058.025-.087.04-.025.01-.054.025-.079.036-.025.01-.05.025-.08.036-.025.01-.054.025-.079.036l-.076.032c-.029.015-.058.026-.087.04-.025.01-.054.025-.08.036-.024.011-.053.026-.079.036-.025.011-.05.026-.08.037l-.079.036-.076.032c-.029.015-.057.026-.086.04-.026.01-.055.025-.08.036l-.08.036c-.025.011-.054.026-.079.036-.025.011-.05.026-.08.037l-.075.032c-.03.015-.058.025-.087.04-.025.01-.054.025-.08.036-.025.01-.054.025-.08.036l-.079.036c-.025.011-.054.026-.08.036l-.072.033c-.028.014-.057.025-.086.04-.026.01-.055.025-.08.036-.025.01-.054.025-.08.036-.025.01-.053.025-.079.036l-.08.036-.072.033c-.029.014-.057.025-.086.04-.026.01-.055.025-.08.036-.025.01-.054.025-.08.036-.025.01-.054.025-.079.036-.025.01-.054.025-.08.036l-.072.033c-.029.01-.054.025-.083.04-.025.01-.054.025-.08.036-.025.01-.054.025-.079.036-.025.01-.054.025-.08.036C8.253 12.04 0 23.949 0 37.753 0 56.538 15.282 71.82 34.066 71.82a33.868 33.868 0 0 0 14.151-3.08l.069-.032v.003ZM1.598 37.753c0-17.902 14.566-32.469 32.468-32.469 17.903 0 32.473 14.567 32.473 32.473S51.973 70.229 34.066 70.229c-17.906 0-32.468-14.57-32.468-32.476Z"/><path d="M50.827 48.658c.669.86-.535 2.082-1.21 1.211-7.552-9.701-23.9-9.701-31.45 0-.676.871-1.88-.35-1.211-1.21 8.07-10.37 25.8-10.37 33.87 0Zm-30.94-13.901 3.726-3.727 3.727 3.727 2.147-2.147-3.726-3.727 3.726-3.726-2.147-2.147-3.727 3.726-3.726-3.726-2.147 2.147 3.727 3.726-3.727 3.727 2.147 2.147Zm31.345-9.597-2.147-2.147-3.727 3.727-3.726-3.727-2.147 2.147 3.726 3.727-3.726 3.726 2.147 2.147 3.726-3.726 3.727 3.726 2.147-2.147-3.727-3.726 3.727-3.727Z"/></g><mask id="c" style="mask-type:luminance" maskUnits="userSpaceOnUse" x="61" y="0" width="72" height="72"><path d="M123.839 37.84c0-8.65 3.243-16.55 8.574-22.565C126.308 6.075 115.855 0 104.01 0a33.834 33.834 0 0 0-14.14 3.076c-.028.014-.057.025-.086.04-.025.01-.05.025-.08.036-.025.01-.054.025-.08.036l-.079.036-.08.036-.072.033c-.028.014-.057.025-.086.04-.026.01-.055.025-.08.036-.025.01-.05.025-.076.036-.029.01-.054.025-.083.036-.025.01-.054.025-.08.036l-.072.033c-.028.014-.057.025-.086.04-.026.01-.055.025-.08.036-.025.01-.05.025-.08.036-.025.01-.054.025-.079.036-.025.01-.054.025-.08.036-.025.01-.05.022-.072.033-.029.014-.058.025-.086.04-.026.01-.055.025-.08.035l-.08.037c-.025.01-.05.025-.079.036-.025.01-.054.025-.08.036l-.076.032c-.028.015-.057.026-.086.04l-.08.036c-.025.011-.054.026-.08.036-.025.011-.053.026-.079.037-.025.01-.05.025-.076.036a.721.721 0 0 0-.076.036c-.028.014-.057.025-.086.04-.026.01-.054.025-.08.036-.025.01-.054.025-.08.036-.025.01-.054.025-.079.036-.025.01-.05.025-.08.036l-.075.033c-.03.014-.058.025-.087.04-.025.01-.054.025-.08.036-.025.01-.054.025-.08.036l-.079.036c-.025.01-.054.025-.08.036-.024.01-.046.022-.071.033-.03.014-.058.025-.087.04-.025.01-.054.025-.08.036-.025.01-.054.025-.08.036-.025.01-.053.025-.079.036-.025.01-.054.025-.08.036l-.072.032c-.028.011-.054.026-.083.037-.029.01-.054.025-.083.036-.025.01-.054.025-.08.036-.025.01-.053.025-.079.036-.025.01-.054.025-.08.036l-.072.033-.083.04c-.025.01-.054.025-.08.036-.025.01-.053.025-.079.036-.025.01-.054.025-.08.036-.025.01-.053.025-.079.036-.025.01-.05.022-.072.033-.029.014-.058.025-.087.04-.025.01-.05.025-.08.036-.025.01-.054.025-.079.036-.025.01-.054.025-.08.036-.025.01-.05.021-.072.032-.029.015-.058.026-.086.04-.026.01-.055.025-.08.036-.025.011-.054.026-.08.036-.025.011-.05.026-.075.037-.03.01-.055.025-.084.036-.025.01-.05.021-.072.032-.029.015-.058.026-.087.04-.025.01-.054.025-.08.036l-.079.036c-.025.011-.05.026-.08.036-.024.011-.053.026-.079.037l-.076.032c-.028.015-.057.025-.086.04-.026.01-.054.025-.08.036-.025.01-.054.025-.08.036l-.079.036c-.025.011-.05.026-.08.036l-.075.033c-.03.014-.058.025-.087.04-.025.01-.054.025-.08.036-.025.01-.054.025-.08.036l-.079.036c-.025.011-.05.025-.08.036l-.075.033c-.029.014-.058.025-.087.04-.025.01-.054.025-.08.036-.025.01-.053.025-.079.036-.025.01-.054.025-.08.036-.025.01-.053.025-.079.036l-.072.033c-.029.014-.058.025-.087.04-.025.01-.054.025-.08.036-.025.01-.054.025-.079.036-.025.01-.054.025-.08.036-11.83 5.346-20.081 17.259-20.081 31.063 0 18.784 15.282 34.066 34.066 34.066 5.01 0 9.77-1.088 14.06-3.04.029-.014.062-.028.091-.043a.457.457 0 0 1 .065-.029.98.98 0 0 1 .09-.04c.025-.01.047-.021.072-.032.026-.011.051-.025.08-.036l.09-.044.069-.032.09-.044a.567.567 0 0 1 .065-.029.997.997 0 0 1 .091-.04c.025-.01.047-.021.072-.032.025-.01.051-.025.08-.036l.09-.043c.022-.011.043-.022.069-.033a.98.98 0 0 1 .09-.04l.069-.032c.025-.011.054-.026.079-.036l.091-.044.068-.032.091-.044.068-.032c.029-.015.058-.025.087-.04.025-.01.047-.022.072-.032l.08-.037c.029-.014.061-.028.09-.043.022-.01.043-.022.069-.032a.954.954 0 0 1 .09-.04l.069-.033c.025-.01.05-.021.076-.036l.094-.043.068-.033.091-.043c.021-.011.043-.022.068-.033a.996.996 0 0 1 .091-.04c.021-.01.047-.021.068-.032.026-.01.055-.025.08-.036l.094-.044.069-.032a.98.98 0 0 1 .09-.04c.025-.01.047-.022.069-.032.025-.011.05-.026.079-.036a.996.996 0 0 1 .091-.04l.068-.033.094-.043.069-.033a.98.98 0 0 1 .09-.04c.026-.01.047-.021.069-.032.025-.01.051-.025.079-.036.029-.014.062-.029.091-.04l.068-.032.091-.044c.025-.01.047-.021.069-.032.025-.011.05-.026.079-.036l.09-.044c.022-.01.044-.021.065-.029.026-.01.055-.025.08-.036l.09-.043.069-.033a.98.98 0 0 1 .09-.04l.069-.032c.029-.014.062-.029.09-.04a.567.567 0 0 1 .065-.029c.026-.01.055-.025.08-.036l.09-.043.069-.033a.98.98 0 0 1 .09-.04l.069-.032c.025-.01.051-.025.08-.036.029-.015.057-.03.09-.04l.069-.032.09-.044.069-.032a.98.98 0 0 1 .09-.04l.069-.033c.025-.01.05-.025.079-.036l.091-.043.068-.033c.029-.014.058-.025.083-.04.026-.01.055-.025.08-.036.025-.01.051-.021.072-.032.029-.015.058-.025.087-.04.025-.01.051-.025.079-.036.026-.01.055-.025.08-.036.025-.011.054-.026.079-.036l.08-.037c.025-.01.051-.021.072-.032.029-.014.058-.025.087-.04.025-.01.054-.025.08-.036.025-.01.05-.025.079-.036.025-.01.054-.025.08-.036.025-.011.054-.026.079-.036.025-.011.051-.022.072-.033.029-.014.058-.025.087-.04.025-.01.054-.025.08-.036.025-.01.05-.025.079-.036.025-.01.054-.025.08-.036l.079-.036.073-.033c.028-.014.057-.025.086-.04.026-.01.054-.025.08-.036a34.221 34.221 0 0 0 11.512-8.494 33.874 33.874 0 0 1-5.668-18.795l.018.047Z" fill="#fff"/></mask><g mask="url(#c)" fill="#6F6F6F"><path d="M110.206 68.711a.954.954 0 0 1 .09-.04c.026-.01.047-.021.073-.032.025-.01.05-.025.079-.036l.09-.044.069-.032.091-.043a.457.457 0 0 1 .065-.03.98.98 0 0 1 .09-.04c.025-.01.047-.02.072-.032.026-.01.051-.025.08-.036l.09-.043c.022-.011.043-.022.069-.033a.98.98 0 0 1 .09-.04l.069-.032c.025-.01.054-.025.079-.036l.091-.044.068-.032.091-.043c.021-.011.043-.022.068-.033.029-.014.058-.025.087-.04.025-.01.047-.021.072-.032.026-.011.055-.026.08-.036l.09-.044c.022-.01.044-.022.069-.032a.98.98 0 0 1 .09-.04c.026-.01.047-.022.069-.033.025-.01.051-.021.076-.036l.094-.043.069-.033.09-.043c.022-.01.043-.022.069-.032a.954.954 0 0 1 .09-.04l.069-.033c.025-.01.054-.025.079-.036l.094-.043.069-.033a.98.98 0 0 1 .09-.04c.026-.01.047-.021.069-.032.025-.011.05-.025.079-.036a.997.997 0 0 1 .091-.04l.068-.033.094-.043c.022-.01.044-.022.069-.032.029-.015.062-.03.09-.04.026-.011.047-.022.069-.033.025-.01.051-.025.08-.036a.954.954 0 0 1 .09-.04l.069-.032.09-.044c.025-.01.047-.021.069-.032.025-.011.05-.025.079-.036l.091-.044a.469.469 0 0 1 .065-.029c.025-.01.054-.025.079-.036l.091-.043.068-.033a.997.997 0 0 1 .091-.04c.021-.01.047-.021.068-.032a.997.997 0 0 1 .091-.04.457.457 0 0 1 .065-.029c.025-.01.054-.025.079-.036l.091-.043.068-.033a.97.97 0 0 1 .091-.04c.021-.01.047-.021.068-.032.026-.01.051-.025.08-.036.029-.014.058-.029.09-.04l.069-.032.09-.044.069-.032a.98.98 0 0 1 .09-.04l.069-.033c.025-.01.051-.025.079-.036l.091-.043.068-.033c.029-.014.058-.025.084-.04l.079-.035c.025-.011.051-.022.072-.033.029-.014.058-.025.087-.04.025-.01.051-.025.08-.036.025-.01.054-.025.079-.036.025-.01.054-.025.08-.036.025-.011.054-.026.079-.036l.073-.033c.028-.014.057-.025.086-.04.026-.01.054-.025.08-.036.025-.01.05-.025.079-.036.026-.01.055-.025.08-.036.025-.01.054-.025.079-.036l.073-.033c.029-.014.057-.025.086-.04.026-.01.055-.025.08-.036.025-.01.05-.025.079-.036.026-.01.055-.025.08-.036.025-.01.054-.025.079-.036l.073-.033c.029-.014.058-.025.086-.04.026-.01.055-.025.08-.035 11.83-5.346 20.082-17.26 20.082-31.063C138.081 15.282 122.795 0 104.011 0a33.818 33.818 0 0 0-14.136 3.076c-.03.014-.058.025-.087.04-.025.01-.05.025-.08.036-.025.01-.054.025-.08.036-.025.01-.053.025-.079.036l-.08.036-.072.033c-.029.014-.057.025-.086.04-.026.01-.055.025-.08.036-.025.01-.05.025-.076.036-.029.01-.054.025-.083.036-.025.01-.054.025-.08.036l-.072.033c-.029.014-.058.025-.087.04-.025.01-.054.025-.079.036-.025.01-.05.025-.08.036-.025.01-.054.025-.079.036-.025.01-.054.025-.08.036-.025.01-.05.022-.072.033-.029.014-.058.025-.087.04-.025.01-.054.025-.08.035-.024.011-.053.026-.079.037-.025.01-.05.025-.08.036l-.079.036-.076.032c-.029.015-.057.026-.086.04l-.08.036c-.025.011-.054.026-.08.036l-.079.037c-.025.01-.05.025-.076.036a.721.721 0 0 0-.076.036c-.029.014-.058.025-.086.04-.026.01-.055.025-.08.036-.025.01-.054.025-.08.036-.025.01-.054.025-.079.036-.025.01-.05.025-.08.036l-.075.033c-.03.014-.058.025-.087.04-.025.01-.054.025-.08.036-.025.01-.054.025-.08.036l-.079.036c-.025.01-.054.025-.08.036-.025.01-.046.022-.072.033-.028.014-.057.025-.086.04-.026.01-.055.025-.08.036-.025.01-.054.025-.08.036-.025.01-.053.025-.079.036-.025.01-.054.025-.08.036-.025.01-.05.022-.072.032-.028.011-.054.026-.083.037-.029.01-.054.025-.083.036-.025.01-.054.025-.08.036-.025.01-.054.025-.079.036-.025.01-.054.025-.08.036l-.072.033-.083.04c-.025.01-.054.025-.08.036-.025.01-.054.025-.079.036-.025.01-.054.025-.08.036-.025.01-.054.025-.079.036-.025.01-.05.022-.072.033-.03.014-.058.025-.087.04-.025.01-.05.025-.08.036-.025.01-.054.025-.079.036-.025.01-.054.025-.08.036-.025.01-.05.021-.072.032-.029.015-.058.026-.087.04-.025.01-.054.025-.08.036-.024.011-.053.026-.079.036-.025.011-.05.026-.076.037-.028.01-.054.025-.083.036-.025.01-.05.021-.072.032-.029.015-.058.026-.087.04-.025.01-.054.025-.08.036l-.079.036c-.025.011-.05.026-.08.036-.025.011-.053.026-.079.037l-.076.032c-.029.015-.058.025-.086.04-.026.01-.055.025-.08.036-.025.01-.054.025-.08.036l-.079.036c-.025.011-.05.026-.08.036l-.075.033c-.03.014-.058.025-.087.04-.025.01-.054.025-.08.036-.025.01-.054.025-.08.036l-.079.036c-.025.011-.05.025-.08.036l-.075.033c-.029.014-.058.025-.087.04-.025.01-.054.025-.08.036-.025.01-.054.025-.079.036-.025.01-.054.025-.08.036-.025.01-.054.025-.079.036l-.072.033c-.03.014-.058.025-.087.04-.025.01-.054.025-.08.036-.025.01-.054.025-.079.036-.025.01-.054.025-.08.036-11.83 5.346-20.082 17.259-20.082 31.063 0 18.784 15.282 34.066 34.067 34.066 5.01 0 9.77-1.088 14.06-3.04.029-.014.062-.028.091-.043a.457.457 0 0 1 .065-.029l.025.036ZM63.518 37.753c0-17.906 14.566-32.472 32.472-32.472s32.473 14.566 32.473 32.472-14.567 32.473-32.473 32.473-32.472-14.567-32.472-32.473Z"/><path d="M85.606 27.882c0-3.676 1.283-6.655 2.862-6.655 1.58 0 2.863 2.979 2.863 6.655s-1.283 6.654-2.863 6.654-2.862-2.978-2.862-6.654Zm17.899 6.654c1.583 0 2.862-2.978 2.862-6.654 0-3.676-1.283-6.655-2.862-6.655-1.58 0-2.863 2.979-2.863 6.655s1.283 6.654 2.863 6.654Zm12.723 6.593c-.423-.094-.846-.192-1.269-.286.007.083.011.167-.004.26-.748 4.392-3.235 7.97-6.6 10.479.015.025.029.05.044.08.99 2.363 2.284 6.683-1.132 7.724-2.888.881-4.774-2.325-6.083-4.414a20.976 20.976 0 0 1-5.19.662c-8.697 0-17.44-5.581-18.965-14.534a.897.897 0 0 1-.004-.26c-.423.094-.846.191-1.272.285-1.077.242-1.53-1.41-.456-1.652 1.28-.289 2.56-.574 3.839-.863 1.077-.243 1.529 1.41.455 1.651l-.958.217c.019.05.037.105.047.166 2.979 17.487 31.649 17.487 34.627 0a.737.737 0 0 1 .047-.166l-.958-.217c-1.077-.242-.618-1.894.456-1.651 1.279.289 2.559.574 3.838.863 1.077.243.618 1.894-.455 1.652l-.007.004Zm-9.304 11.425a20.815 20.815 0 0 1-4.056 1.916c.828 1.417 2.068 3.571 3.68 3.336 2.208-.322 1.027-3.654.376-5.252Z"/></g><path d="m172.831 68.466.159-.076c.025-.015.054-.026.079-.037.026-.014.055-.025.08-.036.025-.014.054-.025.079-.036.026-.014.055-.025.08-.036.025-.01.051-.025.079-.036.026-.011.051-.026.076-.036l.163-.076c.025-.015.054-.025.079-.036.026-.015.055-.026.08-.037.025-.014.054-.025.08-.036.025-.01.05-.025.075-.036.026-.01.051-.025.076-.036l.163-.076c.025-.014.054-.025.08-.036.025-.014.054-.025.079-.036.025-.015.054-.025.08-.036.025-.011.05-.026.075-.036.026-.015.055-.026.08-.037.025-.01.051-.025.079-.036l.163-.076c.025-.014.054-.025.08-.036.025-.014.054-.025.079-.036.025-.01.051-.025.076-.036.025-.014.054-.025.08-.036.025-.015.054-.026.079-.036.025-.011.051-.026.076-.037l.163-.075c.025-.011.05-.026.076-.036.025-.015.054-.026.079-.037.025-.014.054-.025.08-.036.025-.014.054-.025.079-.036.025-.01.051-.025.08-.036.025-.015.054-.025.079-.036l.159-.076c.026-.015.054-.026.08-.036.025-.015.054-.026.079-.036.026-.015.054-.026.08-.037.025-.014.054-.025.079-.036.026-.01.051-.025.08-.036.025-.01.05-.025.079-.036.055-.025.109-.05.159-.076.026-.014.055-.025.08-.036.025-.014.054-.025.079-.036.026-.015.055-.025.08-.036.025-.015.054-.026.079-.037a.627.627 0 0 0 .076-.036l.163-.076c.025-.014.054-.025.08-.036.025-.01.054-.025.079-.036.025-.014.054-.025.08-.036.025-.01.05-.025.075-.036.055-.025.109-.05.159-.076.026-.014.055-.025.08-.04.025-.014.054-.025.08-.036.025-.01.054-.025.079-.036.025-.014.054-.025.08-.036.025-.015.054-.025.079-.036.025-.011.051-.022.076-.036l.163-.076c.025-.015.054-.026.079-.037.025-.014.054-.025.08-.036.025-.01.054-.025.079-.036.025-.01.054-.025.08-.036.025-.014.054-.025.079-.036a.643.643 0 0 0 .076-.036c.025-.011.054-.026.08-.036.029-.015.057-.026.083-.04.025-.015.054-.025.079-.036.026-.015.055-.026.08-.036l.072-.033c.029-.014.058-.025.083-.04.026-.014.054-.025.08-.04.025-.014.054-.025.079-.036a.443.443 0 0 0 .073-.036c.028-.014.057-.025.086-.04.026-.014.055-.025.08-.036.025-.01.05-.025.076-.036a.836.836 0 0 0 .076-.036c.029-.014.057-.025.086-.04.026-.014.055-.025.08-.036.025-.014.054-.025.079-.036a.443.443 0 0 0 .073-.036l.083-.04c.025-.014.054-.025.079-.036.026-.015.055-.025.08-.036.025-.011.05-.022.072-.036.029-.015.058-.026.087-.04 11.454-5.494 19.381-17.205 19.381-30.734C200.001 15.282 184.715 0 165.931 0a33.885 33.885 0 0 0-14.758 3.365c-.029.015-.058.025-.083.04-.026.01-.055.025-.08.036-.025.014-.054.025-.079.036a.64.64 0 0 0-.076.036c-.029.015-.058.026-.083.04-.026.014-.055.025-.08.036-.025.015-.054.025-.079.036a.64.64 0 0 0-.076.036c-.026.015-.055.026-.08.04l-.083.04c-.025.014-.054.025-.079.036a.639.639 0 0 0-.076.036c-.029.015-.058.026-.084.04-.025.014-.054.025-.079.036l-.076.036c-.025.011-.051.022-.076.036-.029.015-.058.026-.087.04-.025.015-.054.026-.079.036-.025.015-.054.026-.08.037a.474.474 0 0 0-.072.036c-.029.014-.058.025-.087.04-.025.01-.05.025-.076.036-.025.014-.054.025-.079.036-.025.01-.051.021-.076.036-.029.014-.058.025-.087.04-.025.014-.054.025-.079.036-.026.014-.054.025-.08.036-.025.01-.05.022-.072.036l-.083.04-.083.04c-.026.014-.055.025-.08.036-.025.01-.05.021-.072.036-.029.014-.058.025-.087.04-.025.014-.054.025-.079.036-.026.01-.051.025-.076.036a.639.639 0 0 0-.076.036c-.029.015-.058.025-.087.04-.025.014-.054.025-.079.036-.026.014-.055.025-.08.036-.025.01-.051.022-.072.036-.029.015-.058.026-.087.04-.025.01-.051.025-.076.036-.025.011-.051.022-.076.036-.029.015-.058.026-.087.04-.025.015-.054.025-.079.036-.025.015-.054.026-.08.036-.025.011-.05.022-.076.036-.028.015-.057.026-.083.04-.025.011-.05.026-.076.036-.028.015-.054.026-.083.04-.025.011-.05.022-.076.036-.029.015-.057.026-.083.04-.025.015-.054.025-.079.036-.026.015-.054.026-.08.036l-.072.033c-.029.014-.058.025-.083.04-.026.014-.054.025-.08.04-.025.014-.054.025-.079.036a.64.64 0 0 0-.076.036c-.029.014-.058.025-.083.04-.026.014-.054.025-.08.036-.025.01-.05.025-.076.036-.025.01-.05.021-.076.036-.029.014-.057.025-.086.04-.026.014-.055.025-.08.036-.025.014-.054.025-.079.036a.441.441 0 0 0-.073.036c-.029.015-.058.025-.086.04-.026.01-.051.025-.076.036-.029.014-.055.025-.083.04a.441.441 0 0 0-.073.036c-.029.014-.058.025-.087.04-.025.014-.054.025-.079.036-.025.014-.054.025-.08.036-.025.01-.047.022-.072.032-.029.015-.058.026-.087.04-.025.015-.054.026-.079.036-.025.015-.054.026-.08.037-.025.01-.05.021-.072.036-.029.014-.058.025-.087.04-.025.014-.054.025-.079.036-.025.01-.051.025-.076.036-.025.01-.051.021-.076.036-.029.014-.058.025-.087.04-.025.014-.054.025-.079.036-.026.014-.054.025-.08.036-.025.01-.05.022-.072.036-.029.014-.058.025-.087.04-.025.01-.05.025-.076.036-.025.01-.05.025-.076.036-.029.015-.057.025-.083.04-.025.014-.054.025-.079.036-.026.014-.054.025-.08.036-.025.011-.05.022-.076.036l-.083.04c-.025.014-.054.025-.079.04-.026.014-.055.025-.08.036a.831.831 0 0 0-.076.036c-.029.015-.058.025-.083.04-.025.014-.054.025-.079.036-11.455 5.494-19.381 17.205-19.381 30.734 0 18.784 15.282 34.066 34.066 34.066 5.288 0 10.298-1.21 14.765-3.368.026-.011.051-.026.08-.036.025-.011.05-.026.079-.037l-.003.019ZM125.438 37.84c0-17.906 14.566-32.473 32.472-32.473s32.473 14.567 32.473 32.473-14.567 32.472-32.473 32.472-32.472-14.566-32.472-32.472Z" fill="#6F6F6F"/><path d="m175.947 40.974-1.142-.25a.785.785 0 0 1-.007.22c-2.949 16.663-30.832 16.663-33.781 0a.788.788 0 0 1-.007-.22l-1.142.25c-.947.206-1.349-1.247-.402-1.453l3.423-.749c.947-.206 1.349 1.247.402 1.453-.286.062-.572.127-.857.188.014.04.029.084.036.13 2.696 15.225 28.179 15.225 30.875 0a.703.703 0 0 1 .036-.13c-.285-.061-.571-.126-.857-.188-.947-.206-.545-1.659.402-1.453 1.142.25 2.28.5 3.423.749.947.206.545 1.659-.402 1.453ZM143.594 29.75c.506.791 1.11 1.507 1.764 2.186.875.9 1.804 1.739 2.812 2.509 1.265-.98 2.443-2.042 3.481-3.246.661-.766 1.258-1.576 1.662-2.508.282-.651.445-1.327.326-2.039-.242-1.46-1.616-2.425-3.04-2.245-.795.102-1.41.488-1.872 1.107-.221.296-.38.636-.568.954a.59.59 0 0 1-.05-.084c-.12-.227-.214-.466-.358-.675-.626-.915-1.475-1.42-2.639-1.302-1.666.174-2.7 1.688-2.403 3.26.144.76.473 1.436.885 2.083Zm20.939 0c.506.791 1.109 1.507 1.764 2.186.874.9 1.803 1.739 2.812 2.509 1.265-.98 2.443-2.042 3.48-3.246.662-.766 1.258-1.576 1.663-2.508.282-.651.445-1.327.325-2.039-.242-1.46-1.615-2.425-3.039-2.245-.796.102-1.41.488-1.873 1.107-.22.296-.379.636-.567.954a.927.927 0 0 1-.054-.084c-.12-.227-.214-.466-.358-.675-.625-.915-1.475-1.42-2.639-1.302-1.666.174-2.7 1.688-2.403 3.26.144.76.473 1.436.885 2.083h.004Z" fill="#6F6F6F"/></g><defs><clipPath id="a"><path fill="#fff" d="M0 0h200v57H0z"/></clipPath></defs></svg>