<svg width="22" height="22" fill="none" xmlns="http://www.w3.org/2000/svg"><g clip-path="url(#a)" fill="#F7F7F7"><path d="M11.84 1c-.311 0-.619.02-.92.06l-.015.001-.016.002c-.007 0-.013.002-.02.003l-.014.002-.018.002-.015.002-.017.002-.018.003c-.005 0-.01 0-.015.002-.005 0-.011 0-.017.002l-.018.002-.014.002c-.007 0-.013.002-.02.003l-.014.001-.016.002c-.007 0-.013.002-.02.003l-.014.002-.016.001-.02.003-.014.002-.019.002-.014.002-.017.002-.019.002-.014.002-.017.002-.02.002-.013.002-.019.003-.015.001-.016.002-.019.003-.015.001-.016.002-.02.003c-.004 0-.009 0-.014.002-.005 0-.01 0-.016.002l-.019.002-.014.002c-.007 0-.013.002-.02.003-.004 0-.01 0-.014.002l-.017.001-.02.003-.013.002c-.005 0-.01 0-.017.002l-.019.002-.014.002-.019.003c-.005 0-.01 0-.014.002-.006 0-.012 0-.017.002l-.019.002-.014.002c-.006 0-.012.001-.017.003l-.019.002-.014.002-.02.002-.014.002-.017.002-.018.002-.015.002-.016.002c-.007 0-.013.002-.02.003l-.014.001-.019.003-.014.002c-.005 0-.011 0-.017.002l-.018.003-.015.001-.017.002-.019.003-.014.001-.017.003-.019.002-.014.002-.018.003-.015.001-.016.002c-.007 0-.013.002-.02.003l-.014.001-.016.002c-.007 0-.013.002-.02.003l-.014.002-.02.002-.014.002-.016.002-.02.002-.013.002a.186.186 0 0 0-.017.002l-.02.003-.013.002-.019.002-.014.002-.017.002-.019.003-.014.002c-.006 0-.012 0-.017.002l-.019.002-.014.002c-.007 0-.013.002-.02.003-.004 0-.009 0-.014.002C5.734 1.727 3 4.784 3 8.476a7.29 7.29 0 0 0 3.07 5.957 9.1 9.1 0 0 1 .122.822c.02.203.06.582.355.715a.442.442 0 0 0 .24.04l.016-.003.016-.002.02-.002.015-.002.015-.002.02-.002.015-.002a.075.075 0 0 0 .016-.002.081.081 0 0 0 .017-.003l.016-.002a.086.086 0 0 0 .018-.002l.016-.003.016-.001.018-.003.015-.002a.081.081 0 0 0 .017-.002l.016-.002.018-.002.016-.003.016-.002c.005 0 .01 0 .016-.002l.02-.002.014-.002c.006 0 .011 0 .018-.002l.016-.002a.081.081 0 0 0 .017-.002.075.075 0 0 0 .016-.003l.017-.002.016-.002.018-.003.016-.001.016-.002.018-.003c.006 0 .01 0 .016-.002.006 0 .011 0 .017-.002l.017-.002c.005 0 .01 0 .016-.002l.018-.002.017-.002.015-.002c.007 0 .013-.002.019-.003.005 0 .01 0 .014-.002.006 0 .012 0 .018-.002l.017-.002.015-.002.019-.003.016-.002.015-.002.02-.002.014-.002.018-.003c.005 0 .01 0 .016-.002l.016-.002.018-.002.016-.003.016-.002a.093.093 0 0 0 .018-.002l.016-.002a.081.081 0 0 0 .016-.003l.017-.002a.081.081 0 0 0 .016-.003.081.081 0 0 0 .017-.002l.016-.002.016-.002.02-.002.014-.002.016-.002.02-.002.014-.002.018-.003.015-.001.016-.002.018-.003c.006 0 .011 0 .016-.002l.016-.002a.093.093 0 0 0 .018-.002l.016-.003a.082.082 0 0 0 .017-.002l.015-.002a.076.076 0 0 0 .017-.002l.018-.003.015-.002.016-.002.018-.002.016-.002a.081.081 0 0 0 .017-.002.07.07 0 0 0 .016-.003.076.076 0 0 0 .017-.002l.016-.003a.07.07 0 0 0 .016-.002l.017-.002.018-.002a.06.06 0 0 0 .015-.003l.016-.002a.081.081 0 0 0 .017-.003.075.075 0 0 0 .017-.002l.016-.002c.006 0 .011-.002.017-.003l.016-.002.018-.002a.45.45 0 0 0 .106-.023c.205.196.363.395.419.637.037.166.024.342.008.53a2.797 2.797 0 0 0-.013.42c.017.249.137.5.307.64.12.1.26.142.403.122l.007-.001h.01l.006-.002h.01l.007-.002h.01l.007-.002h.01l.006-.002h.01l.006-.001h.01l.007-.002h.01l.006-.002h.01l.007-.002h.01l.006-.002h.01l.007-.001.01-.001.007-.001h.01l.006-.002h.01l.007-.002h.01l.007-.002h.01l.006-.002h.01l.006-.001.01-.001.007-.001h.01l.006-.002h.01l.007-.002h.01l.006-.002h.01l.007-.002h.01l.007-.001h.01l.006-.002h.01l.007-.002h.01l.007-.002h.01l.005-.002h.01l.007-.002h.01l.006-.001h.01l.007-.002h.01l.007-.002h.01l.006-.002h.01l.007-.002h.01l.007-.001.01-.001.006-.001h.01l.007-.002h.01l.006-.002h.01l.007-.002h.01l.007-.002h.01l.006-.001.01-.001.006-.001h.01l.008-.002h.01l.006-.002h.01l.007-.002h.01l.006-.002h.01l.007-.001h.01l.007-.002h.01l.006-.002h.01l.007-.002h.01l.006-.002h.01l.007-.002h.01l.006-.001h.01l.007-.002h.01l.006-.002h.01l.007-.002h.01l.007-.002h.01l.006-.001.01-.001.007-.001h.01l.006-.002h.01l.007-.002h.01l.007-.002h.01l.006-.002h.01l.007-.001.01-.001.006-.001h.01l.006-.002h.01l.007-.002h.01l.007-.002h.01l.006-.002h.01l.007-.001.01-.001.006-.001h.01l.007-.002h.01l.007-.002h.01l.006-.002h.01l.007-.002h.004l.068 1.511c.038.857.28 1.346.737 1.493a.758.758 0 0 0 .326.03l.016-.001.017-.002.017-.002a.081.081 0 0 0 .016-.003l.017-.002.016-.002.017-.002.018-.003.016-.002a.081.081 0 0 0 .017-.002l.016-.003.017-.001c.006 0 .011-.002.017-.003l.016-.002a.081.081 0 0 0 .017-.002c.006 0 .011-.002.017-.003l.016-.001c.006 0 .011-.002.017-.003a.081.081 0 0 0 .017-.002l.016-.002.018-.002.016-.002a.081.081 0 0 0 .017-.003l.016-.002.017-.002a.081.081 0 0 0 .016-.002c.006 0 .012-.002.017-.003l.016-.002.018-.002.016-.002.017-.002c.006 0 .011-.002.017-.003l.017-.002c.005 0 .01 0 .016-.002l.018-.002.016-.003.017-.002.016-.002a.081.081 0 0 0 .017-.003l.017-.002.016-.002.017-.002.018-.003.016-.002a.081.081 0 0 0 .017-.002c.006 0 .011-.002.017-.003l.016-.001c.006 0 .011-.002.017-.003.006 0 .011 0 .016-.002.006 0 .011 0 .017-.002l.018-.002.016-.002a.082.082 0 0 0 .017-.003l.017-.002.016-.002.017-.002.016-.002c.006 0 .011-.001.017-.003l.018-.002.015-.002a.081.081 0 0 0 .017-.002c.006 0 .011-.002.017-.003l.017-.002.017-.002.016-.002a.081.081 0 0 0 .016-.002c.007 0 .012-.002.018-.003.005 0 .01 0 .016-.002a.081.081 0 0 0 .017-.002l.017-.002.016-.002c.006 0 .011-.002.017-.003.006 0 .011 0 .017-.002.005 0 .01 0 .016-.002l.018-.002.016-.003.016-.002.018-.002.016-.003c.005 0 .01 0 .016-.002l.017-.002.016-.003.017-.002.016-.002c.006 0 .011-.001.017-.003l.018-.002.016-.002a.081.081 0 0 0 .017-.002l.016-.003c.006 0 .011 0 .017-.002l.017-.002.016-.002.016-.002.018-.003.016-.001.017-.003.017-.002.017-.002c.006 0 .01-.002.017-.003l.015-.001c.4-.04.766-.38.905-.771.153-.43.106-.888.061-1.33l-.01-.105c-.038-.38-.06-.76-.068-1.142.006 0 .011 0 .017-.002l.016-.002.018-.002.015-.002.018-.003.016-.001.016-.002.018-.003c.005 0 .01 0 .015-.002l.016-.001.018-.003.015-.002.018-.002a.07.07 0 0 0 .016-.003l.016-.001.018-.003c.005 0 .01 0 .015-.002.006 0 .012 0 .018-.002l.017-.002.016-.002c.006 0 .011-.002.017-.003l.017-.002.016-.002.018-.002.016-.002.016-.002.018-.002.016-.003.017-.002.016-.002c.006 0 .011-.001.017-.003l.018-.002.015-.002.018-.002.017-.003c.005 0 .01 0 .015-.002a.081.081 0 0 0 .017-.002l.017-.002.016-.002c.006 0 .011-.002.017-.003.006 0 .011 0 .017-.002l.016-.002a.081.081 0 0 0 .017-.002l.016-.003.017-.002.017-.002c.006 0 .01-.001.016-.003l.018-.002.015-.002a.083.083 0 0 0 .017-.002l.018-.003c.005 0 .01 0 .015-.002l.016-.001.018-.003c.005 0 .01 0 .015-.002l.017-.001.018-.003.016-.002.018-.002.015-.002.017-.002c.006 0 .012-.002.017-.003l.016-.002.017-.002.017-.002.016-.002.018-.003.016-.002.016-.002.018-.002.016-.002.017-.002.017-.002.017-.003a.701.701 0 0 0 .146-.03.964.964 0 0 0 .576-.525c.145-.341.12-.71.095-1.066l-.01-.144a6.82 6.82 0 0 1 .184-2.028A7.242 7.242 0 0 0 19 8.272C19 4.255 15.789 1 11.84 1Zm-1.68.47c3.81 0 6.91 3.143 6.91 7.005a6.99 6.99 0 0 1-2.136 5.063.13.13 0 0 0-.035.06 7.058 7.058 0 0 0-.19 2.287c.023.326.046.664-.075.949a.71.71 0 0 1-.42.384.38.38 0 0 1-.326-.035c-.229-.15-.218-.465-.206-.83.012-.367.026-.784-.265-1.04-.14-.124-.318-.156-.453-.08-.172.095-.197.308-.209.41a14.888 14.888 0 0 0-.027 3.172l.01.107c.043.413.087.84-.048 1.217-.132.372-.536.702-.903.583-.346-.112-.53-.525-.564-1.264l-.12-2.678c-.03-.64-.28-.825-.484-.869a.462.462 0 0 0-.381.086.79.79 0 0 0-.305.52c-.025.173-.007.343.01.507.013.117.025.227.021.336-.006.226-.12.48-.317.508a.27.27 0 0 1-.213-.068.687.687 0 0 1-.216-.46c-.009-.124.002-.25.012-.384.017-.197.034-.401-.013-.607-.1-.438-.468-.753-.736-.983a2.729 2.729 0 0 0-.161-.13.136.136 0 0 0-.04-.02 6.83 6.83 0 0 1-.474-.154.119.119 0 0 0-.064-.006c-.244.043-.432.238-.599.41-.207.214-.342.342-.496.272-.145-.065-.185-.284-.208-.51a9.502 9.502 0 0 0-.135-.897.123.123 0 0 0-.052-.078 7.035 7.035 0 0 1-3.003-5.777c0-3.863 3.1-7.005 6.91-7.005Z"/><path d="M15.018 8.06a.134.134 0 0 0-.16-.102c-.458.106-.793-.004-1.024-.334a.132.132 0 0 0-.187-.032.136.136 0 0 0-.031.189c.126.18.282.31.463.391-.009 1.762-.91 3.093-2.476 3.655-1.156.415-2.486.203-3.56-.566-1.05-.753-1.656-1.878-1.665-3.09.181-.08.337-.21.463-.391a.137.137 0 0 0-.031-.189.132.132 0 0 0-.187.032c-.232.331-.567.44-1.024.335a.134.134 0 0 0-.16.102.136.136 0 0 0 .1.163c.13.03.252.044.368.044.071 0 .14-.005.206-.016.034 1.253.693 2.455 1.776 3.232a4.311 4.311 0 0 0 2.502.824 3.85 3.85 0 0 0 1.506-.304c.36.56.724.842 1.087.842a.79.79 0 0 0 .386-.107c.252-.139.407-.321.462-.542.105-.429-.187-.896-.436-1.278.593-.702.929-1.62.95-2.667.066.01.134.016.205.016.117 0 .24-.015.368-.044a.136.136 0 0 0 .1-.163h-.001Zm-1.447 4.07c-.036.147-.144.268-.33.37-.349.193-.7-.001-1.097-.609.406-.2.763-.46 1.065-.768.21.326.436.709.363 1.007h-.001ZM7.408 6.562l.626-.634-.626-.634.361-.366.626.634.626-.634.361.366-.626.634.626.634-.36.366-.627-.634-.626.634-.36-.366Zm4.055 0 .626-.634-.626-.634.36-.366.627.634.626-.634.36.366-.625.634.625.634-.36.366-.626-.634-.626.634-.361-.366Z"/></g><defs><clipPath id="a"><path fill="#fff" transform="translate(3 1)" d="M0 0h16v20H0z"/></clipPath></defs></svg>