<svg width="34" height="34" viewBox="0 0 34 34" fill="none" xmlns="http://www.w3.org/2000/svg">
<path fill-rule="evenodd" clip-rule="evenodd" d="M22.8124 9.5492C22.6838 9.58761 22.2513 9.74906 21.8512 9.90788C21.4511 10.0668 20.2703 10.5296 19.2272 10.9366C18.184 11.3435 16.2901 12.0828 15.0183 12.5794C13.7466 13.0761 11.5604 13.9294 10.16 14.4755C4.22822 16.789 4.45274 16.6935 4.16223 17.0285C3.94363 17.2806 3.94592 17.5084 4.16925 17.7294C4.30336 17.8622 4.51302 17.951 5.24743 18.1863C5.74885 18.347 6.50981 18.5932 6.93848 18.7336C7.36716 18.874 8.06395 19.099 8.48696 19.2335L9.25603 19.4782L9.42225 19.3771C9.51365 19.3216 10.4302 18.7359 11.4591 18.0757C12.4879 17.4156 13.8557 16.5397 14.4987 16.1294C15.1418 15.7192 16.1589 15.0687 16.759 14.684C20.1562 12.5063 20.1475 12.5112 20.3695 12.6315C20.4271 12.6627 20.4742 12.7059 20.4742 12.7275C20.4742 12.7865 19.9974 13.2432 18.7595 14.37C18.1451 14.9293 16.3686 16.5485 14.812 17.9681C13.2552 19.3878 11.9416 20.5849 11.8928 20.6283C11.8164 20.6963 11.7855 21.0056 11.6699 22.8641C11.5961 24.0504 11.5229 25.1217 11.5072 25.2446C11.479 25.4658 11.4804 25.4682 11.6398 25.4682C11.7284 25.4682 11.8877 25.4231 11.9937 25.368C12.0997 25.3128 12.728 24.7328 13.3899 24.0791C14.0517 23.4253 14.6166 22.8904 14.6454 22.8904C14.6741 22.8904 14.8925 23.0376 15.1307 23.2175C15.369 23.3975 15.7276 23.6653 15.9277 23.8127C16.1277 23.9601 16.9766 24.5938 17.814 25.221C19.0272 26.1295 19.3946 26.3783 19.6216 26.4451C20.1311 26.595 20.5108 26.4373 20.7413 25.9798C20.8511 25.7619 20.9339 25.3802 22.7878 16.5512C24.1134 10.2377 24.0395 10.631 23.9666 10.279C23.839 9.66341 23.3869 9.37749 22.8124 9.5492Z" fill="#1BBFE4"/>
</svg>
